<?xml version="1.0" encoding="UTF-8"?>
<!DOCTYPE svg PUBLIC "-//W3C//DTD SVG 1.1//EN" "http://www.w3.org/Graphics/SVG/1.1/DTD/svg11.dtd">
<!-- Creator: CorelDRAW 2021 (64-Bit) -->
<svg xmlns="http://www.w3.org/2000/svg" xml:space="preserve" width="105.833mm" height="105.833mm" version="1.1" style="shape-rendering:geometricPrecision; text-rendering:geometricPrecision; image-rendering:optimizeQuality; fill-rule:evenodd; clip-rule:evenodd"
viewBox="0 0 10583.32 10583.32"
 xmlns:xlink="http://www.w3.org/1999/xlink"
 xmlns:xodm="http://www.corel.com/coreldraw/odm/2003">
 <defs>
  <style type="text/css">
   <![CDATA[
    .fil1 {fill:none}
    .fil0 {fill:white}
   ]]>
  </style>
 </defs>
 <g id="Layer_x0020_1">
  <metadata id="CorelCorpID_0Corel-Layer"/>
  <g id="_2241081210672">
   <g>
    <path class="fil0" d="M3484.66 4035.07c289.61,-134.35 1550.44,-650.81 1803.13,-500.43 615.12,366.09 -896.71,1366.36 -1091.58,1532.95 -1358.01,1160.98 -378.44,826.92 405.47,823.97 226.88,-0.85 1359.79,-42.62 1456.06,333.79 132.33,517.35 -689.88,1100.65 -548.23,1569.87 -244.22,-340.08 538.36,-1053.48 472.81,-1505.54 -64.67,-445.95 -1755.56,-237.12 -2033.34,-212.41 -1125.68,100.16 -261.48,-771.91 144.54,-1129.21 46.15,-40.63 1565.33,-1175.36 1055.44,-1271.16 -570.54,161.12 -1015.07,274.84 -1557.57,532.16l-106.73 -173.99z"/>
   </g>
   <path class="fil1" d="M3538.03 4122.07c291.58,-178.87 1045.77,-387.48 1605.44,-539.48 152.4,11.42 523.49,237.24 -487.27,1013.16 -473.67,363.6 -2167.89,1686.67 -425.37,1376.25 272.88,-48.61 1627.19,-19.46 1746.39,174.86 280.16,456.72 -695.7,1276.68 -467.71,1648.36"/>
   <g>
    <path class="fil0" d="M5412.02 7769.84c-236.15,-353.64 -445.31,-280.32 -523.74,-281.85 -0.57,19.19 -1.54,52.8 -11.46,51.15l-0.64 -1.13c0.12,-1.02 -35.45,-86.21 -1.49,-82.89 245.57,-101.44 478.71,72.41 624.71,261.12l-87.38 53.6zm-523.32 -292.01c0.17,-0.49 0.31,-1 0.42,-1.54l-0.25 -0.09 -0.17 1.63z"/>
   </g>
   <path class="fil1" d="M5455.71 7743.04c-115.82,-188.82 -381.89,-351.03 -579.29,-271.82 -8.46,-4.78 8.6,67.28 -0.24,66.79"/>
   <g>
    <path class="fil0" d="M5459.6 7779.38c97.8,-239.09 537.32,-232.3 628.38,-254.52 19.73,14.86 62.84,60.18 76.31,54.68l0.43 -1.24c-9.29,-20.69 -47.36,-92.44 -80.79,-89.09l3.53 -1.13c-274.67,-5.25 -608.68,-0.52 -735.17,254.2l107.31 37.1zm626.36 -256.01c-1.28,-0.33 -2.37,-0.95 -3.14,-1.98 0.93,0.51 1.98,1.18 3.14,1.98z"/>
   </g>
   <path class="fil1" d="M5405.95 7760.83c72.37,-209.36 471.6,-260.73 682.15,-254.8 7.71,-6.32 67.35,74.4 76.62,72.27"/>
  </g>
  <path class="fil0" d="M6092.76 6460.66c28.96,-92.1 128.36,-293.83 66.44,-375.99 -151.17,-200.51 -457.88,-276.5 -838.53,-300.09l-53.38 65.35 -6.5 7.96c307.02,3.21 540.93,29.49 695.33,139.66 67.63,48.26 159.91,143.11 169.29,207.86 1.76,12.24 -33.21,242.55 -32.65,255.25z"/>
  <path class="fil1" d="M3751.4 3937.49c291.6,-178.87 1045.79,-387.48 1605.45,-539.48 152.41,11.41 523.5,237.24 -487.26,1013.15 -473.68,363.6 -2167.9,1686.67 -425.37,1376.26 132.68,-23.63 520.96,-28.88 898.66,-5.72"/>
  <path class="fil1" d="M6240.54 6122.13c33.28,468.93 -720.98,1157.02 -517.63,1488.5"/>
 </g>
</svg>
